<svg width="25" height="25" viewBox="0 0 25 25" fill="none" xmlns="http://www.w3.org/2000/svg">
<g clip-path="url(#clip0_1951_1468)">
<path fill-rule="evenodd" clip-rule="evenodd" d="M5.46875 0C5.67595 0 5.87466 0.08231 6.02118 0.228823C6.16769 0.375336 6.25 0.57405 6.25 0.78125V1.5625H18.75V0.78125C18.75 0.57405 18.8323 0.375336 18.9788 0.228823C19.1253 0.08231 19.324 0 19.5312 0C19.7385 0 19.9372 0.08231 20.0837 0.228823C20.2302 0.375336 20.3125 0.57405 20.3125 0.78125V1.5625H21.875C22.7038 1.5625 23.4987 1.89174 24.0847 2.47779C24.6708 3.06384 25 3.8587 25 4.6875V21.875C25 22.7038 24.6708 23.4987 24.0847 24.0847C23.4987 24.6708 22.7038 25 21.875 25H3.125C2.2962 25 1.50134 24.6708 0.915291 24.0847C0.32924 23.4987 0 22.7038 0 21.875V4.6875C0 3.8587 0.32924 3.06384 0.915291 2.47779C1.50134 1.89174 2.2962 1.5625 3.125 1.5625H4.6875V0.78125C4.6875 0.57405 4.76981 0.375336 4.91632 0.228823C5.06284 0.08231 5.26155 0 5.46875 0V0ZM3.125 3.125C2.7106 3.125 2.31317 3.28962 2.02015 3.58265C1.72712 3.87567 1.5625 4.2731 1.5625 4.6875V6.25H23.4375V4.6875C23.4375 4.2731 23.2729 3.87567 22.9799 3.58265C22.6868 3.28962 22.2894 3.125 21.875 3.125H3.125ZM23.4375 7.8125H1.5625V21.875C1.5625 22.2894 1.72712 22.6868 2.02015 22.9799C2.31317 23.2729 2.7106 23.4375 3.125 23.4375H21.875C22.2894 23.4375 22.6868 23.2729 22.9799 22.9799C23.2729 22.6868 23.4375 22.2894 23.4375 21.875V7.8125Z" fill="black"/>
<path d="M17.1875 11.7188C17.1875 11.5115 17.2698 11.3128 17.4163 11.1663C17.5628 11.0198 17.7615 10.9375 17.9687 10.9375H19.5312C19.7384 10.9375 19.9372 11.0198 20.0837 11.1663C20.2302 11.3128 20.3125 11.5115 20.3125 11.7188V13.2813C20.3125 13.4885 20.2302 13.6872 20.0837 13.8337C19.9372 13.9802 19.7384 14.0625 19.5312 14.0625H17.9687C17.7615 14.0625 17.5628 13.9802 17.4163 13.8337C17.2698 13.6872 17.1875 13.4885 17.1875 13.2813V11.7188ZM12.5 11.7188C12.5 11.5115 12.5823 11.3128 12.7288 11.1663C12.8753 11.0198 13.074 10.9375 13.2812 10.9375H14.8437C15.0509 10.9375 15.2497 11.0198 15.3962 11.1663C15.5427 11.3128 15.625 11.5115 15.625 11.7188V13.2813C15.625 13.4885 15.5427 13.6872 15.3962 13.8337C15.2497 13.9802 15.0509 14.0625 14.8437 14.0625H13.2812C13.074 14.0625 12.8753 13.9802 12.7288 13.8337C12.5823 13.6872 12.5 13.4885 12.5 13.2813V11.7188ZM9.375 16.4063C9.375 16.199 9.45731 16.0003 9.60382 15.8538C9.75034 15.7073 9.94905 15.625 10.1562 15.625H11.7187C11.9259 15.625 12.1247 15.7073 12.2712 15.8538C12.4177 16.0003 12.5 16.199 12.5 16.4063V17.9688C12.5 18.176 12.4177 18.3747 12.2712 18.5212C12.1247 18.6677 11.9259 18.75 11.7187 18.75H10.1562C9.94905 18.75 9.75034 18.6677 9.60382 18.5212C9.45731 18.3747 9.375 18.176 9.375 17.9688V16.4063ZM4.6875 16.4063C4.6875 16.199 4.76981 16.0003 4.91632 15.8538C5.06284 15.7073 5.26155 15.625 5.46875 15.625H7.03125C7.23845 15.625 7.43716 15.7073 7.58368 15.8538C7.73019 16.0003 7.8125 16.199 7.8125 16.4063V17.9688C7.8125 18.176 7.73019 18.3747 7.58368 18.5212C7.43716 18.6677 7.23845 18.75 7.03125 18.75H5.46875C5.26155 18.75 5.06284 18.6677 4.91632 18.5212C4.76981 18.3747 4.6875 18.176 4.6875 17.9688V16.4063Z" fill="black"/>
</g>
<defs>
<clipPath id="clip0_1951_1468">
<rect width="25" height="25" fill="white"/>
</clipPath>
</defs>
</svg>
