<svg width="100" height="100" viewBox="0 0 100 100" fill="none" xmlns="http://www.w3.org/2000/svg">
<circle cx="50" cy="50" r="50" fill="#A40000"/>
<path d="M68.75 45.8333C68.75 60.4167 50 72.9167 50 72.9167C50 72.9167 31.25 60.4167 31.25 45.8333C31.25 40.8605 33.2254 36.0914 36.7417 32.5751C40.2581 29.0588 45.0272 27.0833 50 27.0833C54.9728 27.0833 59.7419 29.0588 63.2582 32.5751C66.7746 36.0914 68.75 40.8605 68.75 45.8333Z" stroke="white" stroke-width="4" stroke-linecap="round" stroke-linejoin="round"/>
<path d="M50 52.0833C53.4518 52.0833 56.25 49.2851 56.25 45.8333C56.25 42.3816 53.4518 39.5833 50 39.5833C46.5482 39.5833 43.75 42.3816 43.75 45.8333C43.75 49.2851 46.5482 52.0833 50 52.0833Z" stroke="white" stroke-width="4" stroke-linecap="round" stroke-linejoin="round"/>
</svg>
